<svg id="Layer_2" enable-background="new 0 0 32 32" height="512" viewBox="0 0 32 32" width="512" xmlns="http://www.w3.org/2000/svg"><path d="m21.5 29.989h-11c-1.446 0-3.144-.98-3.866-2.232l-5.5-9.524c-.734-1.272-.734-3.192 0-4.465l5.501-9.524c.722-1.252 2.42-2.232 3.866-2.232h10.999c1.446 0 3.144.98 3.866 2.232l5.5 9.524c.734 1.272.734 3.192 0 4.465l-5.501 9.524c-.721 1.252-2.42 2.232-3.865 2.232zm-11-25.978c-.745 0-1.762.587-2.134 1.232l-5.501 9.524c-.372.645-.372 1.82 0 2.465l5.5 9.524c.373.646 1.39 1.232 2.134 1.232h11.001c.745 0 1.762-.587 2.134-1.232l5.501-9.524c.372-.645.372-1.82 0-2.465l-5.5-9.524c-.373-.646-1.39-1.232-2.134-1.232zm5.5 17.905c-3.263 0-5.917-2.654-5.917-5.916s2.654-5.916 5.917-5.916 5.917 2.654 5.917 5.916-2.654 5.916-5.917 5.916zm0-9.832c-2.16 0-3.917 1.757-3.917 3.916s1.757 3.916 3.917 3.916 3.917-1.757 3.917-3.916-1.757-3.916-3.917-3.916z"/></svg>